# File created by Blade
# Date/Time:  Wed Jan 21 18:34:34 2015
#---------------------------------------------------------
:version 1.10
:name HOM
:units
  mass 1.0
  length 1.000000
  angle deg
:documentation
     Acclaim Skeleton File
:root
   axis xyz
   order TX TY TZ RX RY RZ
   position 0.000000 0.000000 0.000000
   orientation 0 0 0
:bonedata
   begin
      id 1
      name RightUpLeg_dum
      direction -1.000000 0.000000 0.000000
      length 3.693983
      axis 0.0 0.0 0.0 xyz
   end
   begin
      id 2
      name LeftUpLeg_dum
      direction 1.000000 0.000000 0.000000
      length 3.693983
      axis 0.0 0.0 0.0 xyz
   end
   begin
      id 3
      name Spine_dum
      direction 0.000000 1.000000 0.000000
      length 2.392956
      axis 0.0 0.0 0.0 xyz
   end
   begin
      id 4
      name RightUpLeg
      direction 0.000000 -1.000000 0.000000
      length 15.795667
      axis 0.0 0.0 0.0 xyz
      dof rx ry rz
   end
   begin
      id 5
      name RightLeg
      direction 0.000000 -1.000000 0.000000
      length 14.766989
      axis 0.0 0.0 0.0 xyz
      dof rx ry rz
   end
   begin
      id 6
      name RightFoot
      direction 0.000000 -0.258819 0.965926
      length 4.962790
      axis 15.0 0.0 0.0 xyz
      dof rx ry rz
   end
   begin
      id 7
      name RightToeBase
      direction 0.000000 0.000000 1.000000
      length 2.952750
      axis 0.0 0.0 0.0 xyz
      dof rx ry rz
   end
   begin
      id 8
      name LeftUpLeg
      direction 0.000000 -1.000000 0.000000
      length 15.795667
      axis 0.0 0.0 0.0 xyz
      dof rx ry rz
   end
   begin
      id 9
      name LeftLeg
      direction 0.000000 -1.000000 0.000000
      length 14.766989
      axis 0.0 0.0 0.0 xyz
      dof rx ry rz
   end
   begin
      id 10
      name LeftFoot
      direction 0.000000 -0.258819 0.965926
      length 4.962790
      axis 15.0 0.0 0.0 xyz
      dof rx ry rz
   end
   begin
      id 11
      name LeftToeBase
      direction 0.000000 0.000000 1.000000
      length 2.952750
      axis 0.0 0.0 0.0 xyz
      dof rx ry rz
   end
   begin
      id 12
      name Spine
      direction 0.000000 1.000000 0.000000
      length 0.000000
      axis 0.0 0.0 0.0 xyz
      dof rx ry rz
   end
   begin
      id 13
      name Spine_dum1
      direction 0.000000 1.000000 0.000000
      length 13.207411
      axis 0.0 0.0 0.0 xyz
   end
   begin
      id 14
      name Spine_dum2
      direction 0.000000 1.000000 0.000000
      length 13.207411
      axis 0.0 0.0 0.0 xyz
   end
   begin
      id 15
      name Spine_dum3
      direction 0.000000 1.000000 0.000000
      length 19.250100
      axis 0.0 0.0 0.0 xyz
   end
   begin
      id 16
      name RightShoulder
      direction -1.000000 0.000000 0.000000
      length 8.140465
      axis 0.0 0.0 90.0 xyz
      dof rx ry rz
   end
   begin
      id 17
      name RightArm
      direction -1.000000 0.000000 0.000000
      length 10.649840
      axis 0.0 0.0 90.0 xyz
      dof rx ry rz
   end
   begin
      id 18
      name RightForeArm
      direction -1.000000 0.000000 0.000000
      length 8.304624
      axis 0.0 0.0 90.0 xyz
      dof ry rz rx
   end
   begin
      id 19
      name RightHand
      direction -1.000000 0.000000 0.000000
      length 0.000000
      axis 0.0 0.0 90.0 xyz
      dof rx ry rz
   end
   begin
      id 20
      name RightHand_dum1
      direction -1.000000 0.000000 0.000000
      length 3.937000
      axis 0.0 0.0 90.0 xyz
   end
   begin
      id 21
      name RightHand_dum2
      direction 0.000000 0.000000 0.000000
      length 0.000000
      axis 0.0 0.0 90.0 xyz
   end
   begin
      id 22
      name RightHandThumb1
      direction 0.000000 0.000000 1.000000
      length 3.937000
      axis 0.0 0.0 90.0 xyz
      dof rx rz ry
   end
   begin
      id 23
      name LeftShoulder
      direction 1.000000 0.000000 0.000000
      length 8.140465
      axis 0.0 0.0 -90.0 xyz
      dof rx ry rz
   end
   begin
      id 24
      name LeftArm
      direction 1.000000 0.000000 0.000000
      length 10.649840
      axis 0.0 0.0 -90.0 xyz
      dof rx ry rz
   end
   begin
      id 25
      name LeftForeArm
      direction 1.000000 0.000000 0.000000
      length 8.304624
      axis 0.0 0.0 -90.0 xyz
      dof ry rz rx
   end
   begin
      id 26
      name LeftHand
      direction 1.000000 0.000000 0.000000
      length 0.000000
      axis 0.0 0.0 -90.0 xyz
      dof rx ry rz
   end
   begin
      id 27
      name LeftHand_dum1
      direction 1.000000 0.000000 0.000000
      length 3.937000
      axis 0.0 0.0 -90.0 xyz
   end
   begin
      id 28
      name LeftHand_dum2
      direction 0.000000 0.000000 0.000000
      length 0.000000
      axis 0.0 0.0 -90.0 xyz
   end
   begin
      id 29
      name LeftHandThumb1
      direction 0.000000 0.000000 1.000000
      length 3.937000
      axis 0.0 0.0 -90.0 xyz
      dof rx rz ry
   end
   begin
      id 30
      name Head
      direction 0.000000 1.000000 0.000000
      length 4.527550
      axis 0.0 0.0 0.0 xyz
      dof rx ry rz
   end
:hierarchy
   begin
      root RightUpLeg_dum LeftUpLeg_dum Spine_dum
      RightUpLeg_dum RightUpLeg
      LeftUpLeg_dum LeftUpLeg
      Spine_dum Spine
      RightUpLeg RightLeg
      RightLeg RightFoot
      RightFoot RightToeBase
      LeftUpLeg LeftLeg
      LeftLeg LeftFoot
      LeftFoot LeftToeBase
      Spine Spine_dum1 Spine_dum2 Spine_dum3
      Spine_dum1 RightShoulder
      Spine_dum2 LeftShoulder
      Spine_dum3 Head
      RightShoulder RightArm
      RightArm RightForeArm
      RightForeArm RightHand
      RightHand RightHand_dum1 RightHand_dum2
      RightHand_dum2 RightHandThumb1
      LeftShoulder LeftArm
      LeftArm LeftForeArm
      LeftForeArm LeftHand
      LeftHand LeftHand_dum1 LeftHand_dum2
      LeftHand_dum2 LeftHandThumb1
   end

# File created by Blade
# Date/Time:  Wed Jan 21 18:34:41 2015
# Frame Rate: 120.000 fps
#------------------------------------------------------
:FULLY-SPECIFIED
:DEGREES
454
root 2.379921 32.168600 -6.808902 84.790048 -76.237748 -36.843072
RightUpLeg -61.968676 16.144007 -11.394596
RightLeg 4.940315 -0.000000 -0.000000
RightFoot 18.112007 27.803069 34.638105
RightToeBase 23.593949 -0.000000 -0.000000
LeftUpLeg -33.528502 23.927508 -14.765236
LeftLeg 0.338217 -0.000000 -0.000000
LeftFoot -17.404289 6.205410 -7.451065
LeftToeBase 2.218375 -0.000000 -0.000000
Spine -56.259943 -22.530030 37.614506
RightShoulder -27.291581 8.427236 -49.225204
RightArm -12.098668 -9.180178 42.481001
RightForeArm 6.665189 0.000000 -8.152101
RightHand 10.802750 -0.000000 3.279321
RightHandThumb1 -24.326973 -0.000000 -32.862282
LeftShoulder 2.761426 -15.712487 39.250208
LeftArm 54.309424 4.209598 -40.071656
LeftForeArm 19.686189 -0.000000 1.308091
LeftHand -22.281716 -0.000000 -8.150340
LeftHandThumb1 -26.253704 0.000000 33.147579
Head -9.424164 -31.757441 15.535617
455
root 2.383327 32.178712 -6.802266 82.928216 -75.766216 -35.073386
RightUpLeg -61.743242 15.937590 -11.268854
RightLeg 4.936770 -0.000000 -0.000000
RightFoot 17.702719 27.533170 34.395497
RightToeBase 23.276337 -0.000000 -0.000000
LeftUpLeg -33.542298 23.922817 -14.649252
LeftLeg 0.435730 -0.000000 -0.000000
LeftFoot -17.370889 5.993800 -7.194438
LeftToeBase 2.447896 -0.000000 -0.000000
Spine -56.118217 -22.387916 37.351251
RightShoulder -27.166502 8.631080 -49.296587
RightArm -12.039814 -9.189119 42.354279
RightForeArm 6.359835 -0.000000 -7.921507
RightHand 10.650990 -0.000000 3.322768
RightHandThumb1 -24.326973 -0.000000 -32.862282
LeftShoulder 2.686340 -15.327640 39.184210
LeftArm 54.439817 4.029999 -39.955174
LeftForeArm 19.710821 0.000000 1.295145
LeftHand -22.276953 -0.000000 -7.958181
LeftHandThumb1 -26.253704 0.000000 33.147579
Head -9.450432 -31.466581 15.326533
456
root 2.389411 32.188541 -6.795783 81.115003 -75.250947 -33.332616
RightUpLeg -61.522113 15.688022 -11.097681
RightLeg 4.925464 -0.000000 -0.000000
RightFoot 17.289433 27.329583 34.008346
RightToeBase 22.810698 -0.000000 -0.000000
LeftUpLeg -33.512146 23.800022 -14.442386
LeftLeg 0.469310 -0.000000 -0.000000
LeftFoot -17.249676 5.682442 -7.280477
LeftToeBase 2.271512 -0.000000 -0.000000
Spine -55.976896 -22.242689 37.109812
RightShoulder -27.076727 8.836371 -49.372420
RightArm -11.930494 -9.301158 42.241095
RightForeArm 6.375670 -0.000000 -7.790234
RightHand 10.121560 -0.000000 3.420736
RightHandThumb1 -24.326973 -0.000000 -32.862282
LeftShoulder 2.581297 -15.799046 39.116342
LeftArm 54.050781 4.454821 -39.983350
LeftForeArm 19.752022 -0.000000 1.289111
LeftHand -22.311316 -0.000000 -7.833046
LeftHandThumb1 -26.253704 0.000000 33.147579
Head -9.551196 -31.191713 15.147692
457
root 2.397563 32.199076 -6.791145 79.389784 -74.706938 -31.683897
RightUpLeg -61.301781 15.446423 -10.935950
RightLeg 4.915954 -0.000000 -0.000000
RightFoot 16.879563 27.058071 33.711250
RightToeBase 22.355997 -0.000000 -0.000000
LeftUpLeg -33.481470 23.661148 -14.235111
LeftLeg 0.480495 -0.000000 -0.000000
LeftFoot -17.196904 5.613862 -7.056865
LeftToeBase 2.466315 -0.000000 -0.000000
Spine -55.840959 -22.105569 36.866586
RightShoulder -26.941149 8.939359 -49.397148
RightArm -11.760668 -9.231397 42.127016
RightForeArm 6.210832 0.000000 -7.703115
RightHand 10.342984 0.000000 3.436569
RightHandThumb1 -24.326973 -0.000000 -32.862282
LeftShoulder 2.495770 -15.789995 39.064266
LeftArm 53.948725 4.520426 -39.949656
LeftForeArm 19.763257 0.000000 1.320991
LeftHand -22.388141 -0.000000 -7.810901
LeftHandThumb1 -26.253704 0.000000 33.147579
Head -9.591285 -30.907207 14.966882
458
root 2.401998 32.208771 -6.784386 77.882531 -74.187078 -30.260962
RightUpLeg -61.074466 15.230947 -10.785563
RightLeg 4.899464 -0.000000 -0.000000
RightFoot 16.496932 26.746627 33.487381
RightToeBase 21.912102 -0.000000 -0.000000
LeftUpLeg -33.440106 23.603204 -14.074278
LeftLeg 0.477386 -0.000000 -0.000000
LeftFoot -17.102302 5.343967 -7.009223
LeftToeBase 2.517716 -0.000000 -0.000000
Spine -55.694789 -21.938577 36.612058
RightShoulder -26.869747 8.939722 -49.369136
RightArm -11.280174 -9.276184 42.038518
RightForeArm 6.339089 -0.000000 -7.898668
RightHand 10.453121 -0.000000 3.308454
RightHandThumb1 -24.326973 -0.000000 -32.862282
LeftShoulder 2.399966 -15.629847 39.015272
LeftArm 53.911761 4.481479 -39.922593
LeftForeArm 19.793397 -0.000000 1.316178
LeftHand -22.306884 -0.000000 -7.681657
LeftHandThumb1 -26.253704 0.000000 33.147579
Head -9.620517 -30.601123 14.734790
459
root 2.408012 32.218827 -6.778208 76.386211 -73.624587 -28.837360
RightUpLeg -60.841743 14.970828 -10.585126
RightLeg 4.886498 -0.000000 -0.000000
RightFoot 16.093593 26.480995 33.184127
RightToeBase 21.576983 -0.000000 -0.000000
LeftUpLeg -33.410283 23.494651 -13.887501
LeftLeg 0.480571 -0.000000 -0.000000
LeftFoot -16.952321 5.075748 -7.078595
LeftToeBase 2.325841 -0.000000 -0.000000
Spine -55.556316 -21.769934 36.342705
RightShoulder -26.695392 9.213033 -49.435676
RightArm -11.340305 -9.403997 41.891999
RightForeArm 6.261090 -0.000000 -7.702014
RightHand 10.463582 -0.000000 3.446251
RightHandThumb1 -24.326973 -0.000000 -32.862282
LeftShoulder 2.296600 -15.416830 38.945374
LeftArm 53.985903 4.355151 -39.904581
LeftForeArm 19.883368 -0.000000 1.363932
LeftHand -22.360365 -0.000000 -7.792484
LeftHandThumb1 -26.253704 0.000000 33.147579
Head -9.657460 -30.370744 14.554226
